# xmcd
#
# Track frame offsets: 
#        150
#        29348
#        61858
#        83818
#        122177
#        159047
#        181698
#
# Disc length: 2922 seconds
#
# Revision: 0
# Processed by: cddbd v1.5.2PL0 Copyright (c) Steve Scherf et al.
# Submitted via: ExactAudioCopy v0.95a3
#
DISCID=480b6807
DTITLE=Manu Hartman Band - Funky Juice
DYEAR=2007
DGENRE=Blues-Funk
TTITLE0=Spoonful
TTITLE1=Chicken Heads
TTITLE2=Who's Been Talkin
TTITLE3=Hit The Road Jack
TTITLE4=Innercity Blues
TTITLE5=I Just Wanna Make Love
TTITLE6=Stormy Monday Blues
EXTD=
EXTT0=
EXTT1=
EXTT2=
EXTT3=
EXTT4=
EXTT5=
EXTT6=
PLAYORDER=
